<svg xmlns="http://www.w3.org/2000/svg" viewBox="0 0 49 49" height="100%">
  <g fill="currentColor">
    <path d="M19.48,16.348c-0.295,0.344-5.935,6.917-6.23,7.26c0.06,0.05,0.12,0.11,0.17,0.17C17.173,22.17,18.477,19.361,19.48,16.348z"/>
    <path d="M22.44,12.898l-0.37,0.43c0.16-0.04,0.32-0.09,0.5-0.14c-0.02-0.11-0.06-0.22-0.11-0.32C22.46,12.878,22.45,12.888,22.44,12.898z"/>
    <path d="M22.79,14.258c-0.72,0.22-1.34,0.33-1.77,0.38v-0.08l-0.08,0.09c-0.01,0-0.01,0-0.02,0v0.03c-0.691,5.227-3.534,8.647-7.14,10.15c-0.03,0.81-0.7,1.46-1.52,1.46c-0.35,0-0.69-0.12-0.95-0.33c0,0.03-0.047,0.068-0.07,0.08v1.82h8.6l1.18-4.59v-3.96l1.09,1.73l-2.01,7.81l0.81,0.36l3.1-7.69c0.13-0.31,0.16-0.65,0.09-0.98L22.79,14.258z"/>
    <path d="M38.228,1.037v29.147c-0.757,0.269-0.975,1.271-1.218,1.995c0.82,0.37,1.77,0.19,2.41-0.43c-0.35-1.2-0.92-1.51-1.09-1.57l-0.002,0.005V0.649c0.001,0,0.001-0.001,0.002-0.001c0.04-0.02,0.06-0.06,0.04-0.1c-0.01-0.04-0.06-0.06-0.1-0.04c-6.35,2.5-12.08,6.59-16.54,11.78l-0.71,0.81c-0.408,0.463-9.639,10.928-10.04,11.39l0.05-0.02l0.21,0.32v0.01l0.06,0.08c0.043,0.14,0.1,0.41,0.1,0.43c0.602,0.97,2.15,0.351,1.845-0.805c3.663-1.388,6.533-4.777,7.174-10.014l0.281-0.328c0.597-0.047,2.091-0.239,3.631-1.035c1.794-0.928,3.994-2.891,4.42-6.943c0.057-0.044,0.112-0.089,0.169-0.132c0.56,0.055,2.288,0.167,4.116-0.269C34.993,5.315,37.434,4.11,38.228,1.037z M38.8,31.478c-0.047-0.077-0.117-0.137-0.214-0.138c0.002,0,0.003-0.002,0.004-0.002C38.683,31.338,38.754,31.4,38.8,31.478z M38.428,31.404c-0.01,0.007-0.025,0.005-0.034,0.014C38.403,31.409,38.418,31.411,38.428,31.404z M38.366,31.482c-0.023,0.04-0.053,0.077-0.054,0.127c0,0.074,0.029,0.141,0.077,0.19c-0.049-0.049-0.079-0.116-0.079-0.191C38.31,31.559,38.341,31.522,38.366,31.482z M13.225,24.404c-0.122-0.323-0.404-0.571-0.755-0.645l7.824-9.123C19.709,19.058,17.367,22.825,13.225,24.404z M24.288,13.035c-1.443,0.747-2.848,0.958-3.494,1.018l0.227-0.264l1.04-1.21c1.95-2.335,4.166-4.441,6.573-6.302C28.184,10.208,26.041,12.128,24.288,13.035z M33.017,5.683c-1.716,0.412-3.337,0.335-3.98,0.279c2.814-2.122,5.889-3.899,9.154-5.251C37.493,3.95,35.004,5.208,33.017,5.683z"/>
    <path d="M9.55,26.108l-1.34,1.52c-0.13,0.15-0.11,0.38,0.04,0.51c0.15,0.12,0.37,0.11,0.5-0.04l1.29-1.51C9.75,26.54,9.55,26.275,9.55,26.108z"/>
    <path d="M10.85,25.108l-0.02-0.03l-0.95,0.35l0.15,0.58c0.075,0.301,0.654-0.114,0.88-0.33C10.978,25.588,10.874,25.224,10.85,25.108z"/>
    <path d="M10.61,24.628l-0.66-5.16l1.29-1.353v5.313c8.459-9.595,6.577-7.461,9.62-10.91l0.49-0.56c0.01-0.01,0.02-0.03,0.04-0.04c-0.16-0.06-0.32-0.08-0.49-0.08c-1.84,0-0.744,0-3.25,0c0,2.935-3.39,3.01-3.39,0c-0.372,0,0.639,0-1.73,0h-0.38c-0.94,0-1.78,0.55-2.15,1.41l-2.04,5.02c-0.13,0.31-0.14,0.65-0.04,0.96l1.81,5.72L10.61,24.628z"/>
    <path d="M21.765,47.57l-1.302-0.715h-0.002l0.51-17.076l-0.16-0.07l-0.91-0.41l-0.39-0.17l0.2-0.77h-8.45l0.6,18.497h-0.004l-1.302,0.715c-0.159,0.086-0.258,0.253-0.258,0.433c0,0.275,0.221,0.496,0.496,0.496h2.082v-1.645h-0.003l3.259-15.377l3.31,15.38h0.004V48.5h2.082c0.275,0,0.496-0.221,0.496-0.496C22.023,47.823,21.924,47.656,21.765,47.57z"/>
    <path d="M39.763,33.762c-0.029-0.541-0.095-1.037-0.192-1.474c-0.712,0.576-1.714,0.756-2.66,0.39c-0.08,0.421-0.143,0.877-0.172,1.376c-0.682,0.935-0.897,2.206-0.338,3.421c0.019-0.522,0.168-1.016,0.407-1.46c0.063,0.539,0.164,1.114,0.321,1.738c-0.423,0.664-0.38,1.592,0.298,2.207c-0.149-0.387-0.136-0.803-0.005-1.182c0.181,0.565,0.626,1.542,0.569,2.076c-0.055,0.538-0.851,0.732-1.17,1.317c-0.09,0.164-0.153,0.359-0.162,0.604c0,0,0.004-0.004,0.004-0.004c0,0.003-0.001,0.005-0.001,0.008c0.303-0.366,0.926-0.83,1.545-1.076c0.981,0.405,1.533,1.095,1.533,1.095c0-0.001,0-0.001,0-0.002c0,0,0.003,0.003,0.003,0.003c-0.014-0.672-0.415-0.988-0.78-1.256c-0.321-0.238-0.502-0.348-0.529-0.696c0,0-0.001,0-0.001,0c-0.03-0.42,0.19-0.929,0.19-0.929c0.659-1.618,0.992-3.144,1.107-4.494c0.597,0.384,1.083,0.865,1.395,1.437C41.272,35.594,40.728,34.529,39.763,33.762z"/>
    <path d="M14.26,10.888v-0.4c-1.241-0.985-0.671-3.297,0.92-3.07v-0.95c4.34,0,3.39,0.165,4.39-0.42v-0.99h-3.75c-1.73,0-3.13,1.4-3.13,3.14C12.69,9.288,13.36,10.318,14.26,10.888z"/>
    <path d="M17.15,12.348v-0.91c2.288-0.743,2.02-2.851,2.02-4.58c-0.296,0.173-3.146,0.11-3.49,0.11v1.32c-1.145-1.418-2.423,1.201-0.92,1.93v2.13C14.76,13.943,17.15,13.924,17.15,12.348z M18.37,9.268c0.409,0.986-1.201,1.662-1.61,0.7L18.37,9.268z"/>
  </g>
</svg>