<svg xmlns="http://www.w3.org/2000/svg" viewBox="0 0 100 100" height="100%">
  <g fill="currentColor">
    <path d="M47.146,90.334c-9.816,0-18.716-5.81-22.544-15.396c-5.139-12.884,3.689-21.239,8.437-25.721 C44.131,38.694,43.5,28.28,43.467,27.824l5.212-0.415c0.049,0.534,0.97,13.272-11.763,25.357 c-4.921,4.649-11.273,10.659-7.457,20.226c3.705,9.253,13.438,14.001,23.163,11.356c6.924-1.905,10.727-6.289,11.604-13.361 l5.197,0.644c-1.141,9.158-6.48,15.298-15.42,17.762C51.698,90.021,49.399,90.334,47.146,90.334z"/>
    <path fill-rule="evenodd" clip-rule="evenodd" d="M69.28,72.361c0.487-3.457,0.178-7.433,0.337-10.9 c0-0.085,0.027-0.146,0.034-0.211c-0.034-0.252-0.058-0.463-0.027-0.701c-0.007-0.047-0.03-0.071-0.03-0.143 c0.085-1.409-0.041-2.842-0.058-4.268c-3.428,4.938-7.882,8.746-13.639,10.563c2.202,1.542,4.664,2.188,7.332,2.131 c1.12-0.007,1.141,2.882,1.089,3.984"/>
    <path d="M46.016,28.991c-3.553,0-6.597-2.552-7.238-6.064c-0.351-1.933,0.075-3.894,1.198-5.513 c1.118-1.617,2.804-2.699,4.737-3.049c4.016-0.705,7.858,1.98,8.567,5.925c0.724,4.006-1.941,7.855-5.932,8.576 C46.904,28.937,46.452,28.991,46.016,28.991z M46.042,17.529c-0.25,0-0.495,0.007-0.739,0.058 c-1.081,0.191-2.016,0.796-2.634,1.688c-0.628,0.898-0.859,1.984-0.667,3.06c0.403,2.202,2.382,3.727,4.759,3.308 c2.227-0.402,3.699-2.539,3.297-4.771C49.709,18.935,48.019,17.529,46.042,17.529z"/>
  </g>
</svg>